# xmcd CD database file
#
# Track frame offsets:
#	150
#	60704
#	89118
#	135591
#	190786
#	214967
#	247052
#
# Disc length: 3854 seconds
#
# Revision: 0
# Processed by: cddbd v1.4PL0 Copyright (c) Steve Scherf et al.
# Submitted via: CDex 1.51
#
DISCID=6b0f0c07
DTITLE=Stéphane Belmondo-Sylvain Luc - Ameskeri
DYEAR=1999
DGENRE=Jazz
TTITLE0=Mendian
TTITLE1=Menilmontant
TTITLE2=Gazte
TTITLE3=Ilargitara
TTITLE4=Ameskeri
TTITLE5=Green forest
TTITLE6=Chanson douce
EXTD=YEAR: 1999
EXTT0=
EXTT1=
EXTT2=
EXTT3=
EXTT4=
EXTT5=
EXTT6=
PLAYORDER=
